<?xml version="1.0" encoding="UTF-8"?>
<svg id="Camada_2" data-name="Camada 2" xmlns="http://www.w3.org/2000/svg" viewBox="0 0 1014.83 167.01">
  <defs></defs>
  <g id="Objetos">
    <g>
      <path style="fill:#282828" d="M418.46,147.42V49.72l-40.35,74.14h-12.74l-40.55-74.14v97.7h-21.63V10.33h23.17l45.37,83.8,45.37-83.8h23.17v137.09h-21.82Z"></path>
      <path style="fill:#282828" d="M468.46,29.83V6.47h21.24l-21.24,23.36ZM468.46,147.42V46.43h21.24v100.98h-21.24ZM489.7,6.47l-21.24,23.36"></path>
      <path style="fill:#282828" d="M508.82,97.5c0-9.56,1.96-18.27,5.89-26.11,3.92-7.84,9.3-14.09,16.12-18.75,6.82-4.66,14.67-6.98,23.56-6.98,7.72,0,14.7,2,20.95,5.99,6.24,3.99,11.1,8.95,14.58,14.87V6.47h21.24v117.01c0,2.45.45,4.18,1.35,5.21.9,1.03,2.38,1.61,4.44,1.74v16.99c-3.99.64-7.08.97-9.27.97-3.99,0-7.37-1.16-10.14-3.48-2.77-2.32-4.22-5.08-4.34-8.3l-.19-7.53c-3.86,6.44-9.08,11.42-15.64,14.96-6.56,3.54-13.39,5.31-20.47,5.31s-13.36-1.34-19.21-4.02c-5.86-2.68-10.94-6.44-15.25-11.29-4.31-4.84-7.66-10.39-10.04-16.64-2.38-6.25-3.57-12.88-3.57-19.9ZM589.91,111.4v-26.08c-1.42-4.06-3.7-7.71-6.85-10.95-3.16-3.23-6.69-5.8-10.62-7.71-3.93-1.9-7.82-2.86-11.68-2.86-4.51,0-8.59.95-12.26,2.86s-6.82,4.44-9.46,7.61c-2.64,3.17-4.67,6.79-6.08,10.85-1.42,4.06-2.12,8.31-2.12,12.75s.77,8.85,2.32,12.85c1.54,4,3.77,7.55,6.66,10.66,2.9,3.11,6.24,5.52,10.04,7.23,3.8,1.71,7.95,2.57,12.45,2.57,2.83,0,5.7-.51,8.59-1.52,2.9-1.01,5.66-2.41,8.3-4.19,2.64-1.77,4.89-3.87,6.76-6.28,1.86-2.41,3.19-5.01,3.96-7.8Z"></path>
      <path style="fill:#282828" d="M794.91,149.35c-7.85,0-14.96-1.38-21.34-4.12s-11.87-6.52-16.51-11.31c-4.63-4.79-8.21-10.28-10.72-16.48-2.51-6.2-3.77-12.81-3.77-19.84,0-9.42,2.19-18.04,6.56-25.87,4.37-7.83,10.49-14.13,18.34-18.9,7.85-4.77,17.05-7.16,27.61-7.16s19.66,2.39,27.32,7.17c7.66,4.78,13.61,11.06,17.86,18.83,4.25,7.78,6.37,16.12,6.37,25.05,0,1.53-.07,2.97-.19,4.3-.13,1.34-.26,2.45-.39,3.35h-80.9c.39,5.85,2.03,10.96,4.92,15.34,2.9,4.38,6.59,7.81,11.1,10.29,4.5,2.48,9.33,3.72,14.48,3.72,5.66,0,11.04-1.42,16.12-4.25,5.08-2.83,8.53-6.57,10.33-11.2l18.15,5.21c-2.19,4.89-5.5,9.3-9.94,13.23-4.44,3.93-9.69,7.02-15.74,9.27-6.05,2.25-12.62,3.38-19.69,3.38ZM764.6,90.26h61.01c-.39-5.68-2.03-10.69-4.92-15.05-2.9-4.35-6.56-7.76-11.01-10.22-4.44-2.46-9.36-3.69-14.77-3.69s-10.14,1.23-14.58,3.69c-4.44,2.46-8.08,5.87-10.91,10.22-2.83,4.35-4.44,9.37-4.83,15.05Z"></path>
      <path style="fill:#282828" d="M899.95,149.35c-8.5,0-16.54-1.38-24.13-4.15-7.6-2.77-14.1-6.92-19.5-12.45l7.92-14.29c5.79,5.15,11.61,8.88,17.47,11.2,5.86,2.32,11.68,3.48,17.47,3.48s10.75-1.1,14.48-3.31c3.73-2.21,5.6-5.45,5.6-9.74,0-3.19-.97-5.54-2.9-7.08-1.93-1.53-4.73-2.87-8.4-4.02-3.67-1.15-8.08-2.42-13.23-3.83-7.21-2.17-13.26-4.43-18.15-6.79-4.89-2.36-8.56-5.26-11.01-8.7-2.45-3.44-3.67-7.84-3.67-13.2,0-6.5,1.67-12.05,5.02-16.64,3.35-4.59,8.01-8.1,14-10.52,5.99-2.42,12.9-3.64,20.76-3.64,7.34,0,14.12,1.13,20.37,3.38,6.24,2.25,11.74,5.76,16.51,10.52l-9.07,14.09c-4.51-4.12-9.11-7.14-13.81-9.08-4.7-1.93-9.75-2.9-15.16-2.9-3.09,0-6.05.35-8.88,1.05-2.83.7-5.18,1.97-7.05,3.82-1.87,1.85-2.8,4.43-2.8,7.74,0,2.67.77,4.84,2.32,6.49,1.54,1.66,3.86,3.06,6.95,4.2,3.09,1.15,6.88,2.42,11.39,3.82,7.85,2.29,14.54,4.55,20.08,6.78,5.53,2.23,9.81,5.1,12.84,8.59,3.02,3.5,4.54,8.31,4.54,14.42,0,9.68-3.64,17.22-10.91,22.63-7.27,5.41-16.96,8.12-29.06,8.12Z"></path>
      <path style="fill:#282828" d="M1014.83,142.59c-1.8.9-4.05,1.87-6.76,2.9-2.7,1.03-5.76,1.93-9.17,2.7-3.41.77-6.92,1.16-10.52,1.16-4.38,0-8.43-.77-12.16-2.3-3.74-1.54-6.73-4-8.98-7.4-2.25-3.4-3.38-7.79-3.38-13.17v-62.85h-13.32v-16.41h13.32V14h21.24v33.21h22.01v16.41h-22.01v56.05c.26,3.46,1.38,6.02,3.38,7.68,1.99,1.67,4.47,2.5,7.43,2.5s5.79-.51,8.5-1.54c2.7-1.03,4.7-1.86,5.99-2.51l4.44,16.8Z"></path>
      <g>
        <polygon style="fill:#E53615" points="207.65 0 131.54 112.85 110.84 143.63 116.75 143.63 135.12 143.63 204.55 41.75 182.6 167.01 206.46 167.01 235.8 0 207.65 0"></polygon>
        <polygon style="fill:#F18A26" points="177.73 0 152.23 0 55.42 143.63 79.7 143.63 138.2 57.79 177.73 0"></polygon>
        <polygon style="fill:#F18A26" points="122.31 0 96.81 0 0 143.63 24.28 143.63 82.78 57.79 122.31 0"></polygon>
      </g>
      <path style="fill:#282828" d="M736.6,114.64l-4.97,12.28-14.29-36.98,17.18-42.54h-17.96l-11.2,31.23-11.39-31.23h-17.96l17.38,42.54-14.29,36.98-32.44-79.71h-20.27l42.67,100.21h18.15l18.15-45.22,18.15,45.22h18.15l5.41-12.76c-4.67-5.88-8.27-12.65-10.48-20.02Z"></path>
    </g>
  </g>
</svg>